<svg xmlns="http://www.w3.org/2000/svg" width="44" height="39" viewBox="0 0 44 39">
    <g fill="#F5A623" fill-rule="evenodd">
        <path fill-rule="nonzero" d="M36.474 0H7.526C3.369 0 0 2.943 0 6.573v31.112c0 .557.401 1.053 1.002 1.24.6.185 1.27.02 1.672-.412l6.02-6.48h27.78c4.157 0 7.526-2.943 7.526-6.574V6.573C44 2.943 40.63 0 36.474 0zm4.516 25.46c0 2.178-2.022 3.943-4.516 3.943H8.454c-.756 0-1.47.298-1.947.81l-3.512 3.765V6.573c0-2.178 2.022-3.944 4.516-3.944h28.948c2.494 0 4.516 1.766 4.516 3.944l.015 18.886z"/>
        <path d="M21.5 12c-.828 0-1.5.613-1.5 1.369v9.262c0 .756.672 1.369 1.5 1.369s1.5-.613 1.5-1.369V13.37c0-.756-.672-1.369-1.5-1.369zM21.5 7c-.828 0-1.5.647-1.5 1.446v1.108c0 .799.672 1.446 1.5 1.446s1.5-.647 1.5-1.446V8.446C23 7.647 22.328 7 21.5 7z"/>
    </g>
</svg>
