<svg xmlns="http://www.w3.org/2000/svg" width="59" height="61" viewBox="0 0 59 61">
    <g fill="none" fill-rule="evenodd" transform="translate(1 1)">
        <path fill="#F5A623" d="M34.761 18.005L31.595 18c-3.556 0-5.854 2.443-5.854 6.223v2.87h-3.183a.507.507 0 0 0-.498.516v4.157c0 .285.223.515.498.515h3.183v10.49c0 .286.222.516.497.516h4.153a.507.507 0 0 0 .498-.515v-10.49h3.721c.275 0 .498-.231.498-.516l.002-4.157a.526.526 0 0 0-.146-.365.49.49 0 0 0-.352-.151h-3.723V24.66c0-1.169.269-1.762 1.739-1.762l2.132-.001a.507.507 0 0 0 .498-.516v-3.86a.507.507 0 0 0-.497-.516z"/>
        <ellipse cx="28.5" cy="29.5" stroke="#F5A623" rx="28.5" ry="29.5"/>
    </g>
</svg>
