<svg xmlns="http://www.w3.org/2000/svg" width="59" height="59" viewBox="0 0 59 59">
    <g fill="none" fill-rule="evenodd">
        <circle cx="28.5" cy="28.5" r="28.5" fill-rule="nonzero" stroke="#F5A623" transform="translate(1 1)"/>
        <path fill="#F5A623" d="M46.8 42.86c-4.328-4.158-10.033-6.507-16.128-6.67V23.13H40.86c.25 0 .481-.132.6-.344a.63.63 0 0 0-.035-.669l-2.465-3.552 2.465-3.55a.63.63 0 0 0 .034-.67.684.684 0 0 0-.599-.345H29.993a.666.666 0 0 0-.68.652V36.19c-6.094.163-11.799 2.512-16.128 6.67-.264.253-.237.691.025.946a.697.697 0 0 0 .484.194h32.598c.18 0 .382-.096.509-.218a.633.633 0 0 0 0-.923z"/>
    </g>
</svg>
