<svg xmlns="http://www.w3.org/2000/svg" width="38" height="46" viewBox="0 0 38 46">
    <path fill="#F5A623" fill-rule="nonzero" d="M30.409 30.692a7.486 7.486 0 0 0-5.035 1.974l-10.595-7.14c.6-1.616.6-3.398 0-5.014l10.595-7.14a7.497 7.497 0 0 0 9.498.417c2.867-2.143 3.864-6.019 2.391-9.302-1.472-3.282-5.012-5.079-8.496-4.31-3.483.767-5.962 3.892-5.948 7.496.009.855.161 1.703.45 2.507l-10.597 7.14a7.532 7.532 0 0 0-10.54.368c-2.842 2.973-2.842 7.689 0 10.662a7.532 7.532 0 0 0 10.54.368l10.596 7.14c-1.07 3.149-.005 6.636 2.637 8.626a7.505 7.505 0 0 0 8.93.086c2.678-1.937 3.81-5.403 2.8-8.572-1.011-3.17-3.933-5.314-7.226-5.306zm0-26.856c2.096 0 3.795 1.718 3.795 3.837s-1.7 3.836-3.795 3.836c-2.096 0-3.795-1.717-3.795-3.836 0-2.12 1.699-3.837 3.795-3.837zm-22.77 23.02c-2.097 0-3.796-1.718-3.796-3.837s1.7-3.837 3.795-3.837c2.096 0 3.795 1.718 3.795 3.837s-1.699 3.837-3.795 3.837zm22.77 15.346c-2.096 0-3.795-1.718-3.795-3.837s1.699-3.836 3.795-3.836 3.795 1.717 3.795 3.836c0 2.12-1.7 3.837-3.795 3.837z"/>
</svg>
